<svg width="17" height="17" viewBox="0 0 17 17" fill="none" xmlns="http://www.w3.org/2000/svg">
<g clip-path="url(#clip0_1_18)">
<path d="M7.79167 14.1667C9.48243 14.1667 11.1039 13.495 12.2995 12.2995C13.495 11.1039 14.1667 9.48243 14.1667 7.79167C14.1667 6.10092 13.495 4.47941 12.2995 3.28387C11.1039 2.08832 9.48243 1.41667 7.79167 1.41667C6.10092 1.41667 4.47941 2.08832 3.28387 3.28387C2.08832 4.47941 1.41667 6.10092 1.41667 7.79167C1.41667 9.48243 2.08832 11.1039 3.28387 12.2995C4.47941 13.495 6.10092 14.1667 7.79167 14.1667ZM13.4088 14.6554C13.7842 15.7888 14.6413 15.9021 15.3 14.9104C15.9021 14.0038 15.5054 13.26 14.4146 13.26C13.6071 13.2529 13.1538 13.8833 13.4088 14.6554Z" stroke="white" stroke-width="1.5" stroke-linecap="round" stroke-linejoin="round"/>
</g>
<defs>
<clipPath id="clip0_1_18">
<rect width="17" height="17" fill="white"/>
</clipPath>
</defs>
</svg>
